<mxfile host="app.diagrams.net" modified="2020-11-11T21:38:10.379Z" agent="5.0 (Windows)" etag="fSIPATP1fthB2PhWi7C2" version="13.9.6" type="github">
  <diagram id="C5RBs43oDa-KdzZeNtuy" name="Page-1">
    <mxGraphModel dx="1867" dy="1267" grid="1" gridSize="10" guides="1" tooltips="1" connect="1" arrows="1" fold="1" page="1" pageScale="1" pageWidth="827" pageHeight="1169" math="0" shadow="0">
      <root>
        <mxCell id="WIyWlLk6GJQsqaUBKTNV-0" />
        <mxCell id="WIyWlLk6GJQsqaUBKTNV-1" parent="WIyWlLk6GJQsqaUBKTNV-0" />
        <mxCell id="_4KjI6gI-X4VP6oNj7C2-3" value="" style="edgeStyle=orthogonalEdgeStyle;rounded=0;orthogonalLoop=1;jettySize=auto;html=1;" parent="WIyWlLk6GJQsqaUBKTNV-1" source="_4KjI6gI-X4VP6oNj7C2-0" target="_4KjI6gI-X4VP6oNj7C2-1" edge="1">
          <mxGeometry relative="1" as="geometry" />
        </mxCell>
        <mxCell id="_4KjI6gI-X4VP6oNj7C2-0" value="Start" style="rounded=1;whiteSpace=wrap;html=1;" parent="WIyWlLk6GJQsqaUBKTNV-1" vertex="1">
          <mxGeometry x="319" y="180" width="80" height="40" as="geometry" />
        </mxCell>
        <mxCell id="_4KjI6gI-X4VP6oNj7C2-37" style="edgeStyle=orthogonalEdgeStyle;rounded=1;orthogonalLoop=1;jettySize=auto;html=1;exitX=0.5;exitY=1;exitDx=0;exitDy=0;entryX=0.492;entryY=0.042;entryDx=0;entryDy=0;entryPerimeter=0;" parent="WIyWlLk6GJQsqaUBKTNV-1" source="_4KjI6gI-X4VP6oNj7C2-1" target="_4KjI6gI-X4VP6oNj7C2-8" edge="1">
          <mxGeometry relative="1" as="geometry" />
        </mxCell>
        <mxCell id="_4KjI6gI-X4VP6oNj7C2-38" value="True" style="edgeLabel;html=1;align=center;verticalAlign=middle;resizable=0;points=[];" parent="_4KjI6gI-X4VP6oNj7C2-37" vertex="1" connectable="0">
          <mxGeometry x="-0.1798" relative="1" as="geometry">
            <mxPoint as="offset" />
          </mxGeometry>
        </mxCell>
        <mxCell id="_4KjI6gI-X4VP6oNj7C2-46" style="edgeStyle=orthogonalEdgeStyle;rounded=1;orthogonalLoop=1;jettySize=auto;html=1;exitX=0;exitY=0.5;exitDx=0;exitDy=0;entryX=1;entryY=0.5;entryDx=0;entryDy=0;" parent="WIyWlLk6GJQsqaUBKTNV-1" source="_4KjI6gI-X4VP6oNj7C2-1" target="_4KjI6gI-X4VP6oNj7C2-45" edge="1">
          <mxGeometry relative="1" as="geometry" />
        </mxCell>
        <mxCell id="_4KjI6gI-X4VP6oNj7C2-47" value="False" style="edgeLabel;html=1;align=center;verticalAlign=middle;resizable=0;points=[];" parent="_4KjI6gI-X4VP6oNj7C2-46" vertex="1" connectable="0">
          <mxGeometry x="0.0946" relative="1" as="geometry">
            <mxPoint as="offset" />
          </mxGeometry>
        </mxCell>
        <mxCell id="_4KjI6gI-X4VP6oNj7C2-1" value="Do until one ball is left" style="rhombus;whiteSpace=wrap;html=1;rotation=0;rounded=1;" parent="WIyWlLk6GJQsqaUBKTNV-1" vertex="1">
          <mxGeometry x="304" y="260" width="110" height="110" as="geometry" />
        </mxCell>
        <mxCell id="_4KjI6gI-X4VP6oNj7C2-5" style="edgeStyle=orthogonalEdgeStyle;rounded=0;orthogonalLoop=1;jettySize=auto;html=1;exitX=0.5;exitY=1;exitDx=0;exitDy=0;" parent="WIyWlLk6GJQsqaUBKTNV-1" source="_4KjI6gI-X4VP6oNj7C2-1" target="_4KjI6gI-X4VP6oNj7C2-1" edge="1">
          <mxGeometry relative="1" as="geometry" />
        </mxCell>
        <mxCell id="_4KjI6gI-X4VP6oNj7C2-34" style="edgeStyle=orthogonalEdgeStyle;rounded=1;orthogonalLoop=1;jettySize=auto;html=1;exitX=1;exitY=1;exitDx=0;exitDy=0;entryX=0.5;entryY=0;entryDx=0;entryDy=0;" parent="WIyWlLk6GJQsqaUBKTNV-1" source="_4KjI6gI-X4VP6oNj7C2-8" target="_4KjI6gI-X4VP6oNj7C2-11" edge="1">
          <mxGeometry relative="1" as="geometry">
            <Array as="points">
              <mxPoint x="388" y="510" />
              <mxPoint x="470" y="510" />
            </Array>
          </mxGeometry>
        </mxCell>
        <mxCell id="_4KjI6gI-X4VP6oNj7C2-40" value="True" style="edgeLabel;html=1;align=center;verticalAlign=middle;resizable=0;points=[];" parent="_4KjI6gI-X4VP6oNj7C2-34" vertex="1" connectable="0">
          <mxGeometry x="0.1577" relative="1" as="geometry">
            <mxPoint as="offset" />
          </mxGeometry>
        </mxCell>
        <mxCell id="_4KjI6gI-X4VP6oNj7C2-8" value="Do while black or white balls &amp;gt;0" style="rhombus;whiteSpace=wrap;html=1;rotation=0;rounded=1;sketch=0;shadow=0;" parent="WIyWlLk6GJQsqaUBKTNV-1" vertex="1">
          <mxGeometry x="305.75" y="400" width="110" height="110" as="geometry" />
        </mxCell>
        <mxCell id="_4KjI6gI-X4VP6oNj7C2-14" value="" style="edgeStyle=orthogonalEdgeStyle;rounded=1;orthogonalLoop=1;jettySize=auto;html=1;" parent="WIyWlLk6GJQsqaUBKTNV-1" source="_4KjI6gI-X4VP6oNj7C2-11" target="_4KjI6gI-X4VP6oNj7C2-13" edge="1">
          <mxGeometry relative="1" as="geometry" />
        </mxCell>
        <mxCell id="_4KjI6gI-X4VP6oNj7C2-11" value="Pick random ball - number 1 and 2" style="whiteSpace=wrap;html=1;rounded=0;shadow=0;sketch=0;" parent="WIyWlLk6GJQsqaUBKTNV-1" vertex="1">
          <mxGeometry x="414" y="530" width="111" height="55" as="geometry" />
        </mxCell>
        <mxCell id="_4KjI6gI-X4VP6oNj7C2-16" value="" style="edgeStyle=orthogonalEdgeStyle;rounded=1;orthogonalLoop=1;jettySize=auto;html=1;" parent="WIyWlLk6GJQsqaUBKTNV-1" source="_4KjI6gI-X4VP6oNj7C2-13" target="_4KjI6gI-X4VP6oNj7C2-15" edge="1">
          <mxGeometry relative="1" as="geometry" />
        </mxCell>
        <mxCell id="A3U5nzdIfWvStpn5XmiO-9" value="True" style="edgeLabel;html=1;align=center;verticalAlign=middle;resizable=0;points=[];" parent="_4KjI6gI-X4VP6oNj7C2-16" vertex="1" connectable="0">
          <mxGeometry x="-0.1254" relative="1" as="geometry">
            <mxPoint x="2" as="offset" />
          </mxGeometry>
        </mxCell>
        <mxCell id="_4KjI6gI-X4VP6oNj7C2-18" value="" style="edgeStyle=orthogonalEdgeStyle;rounded=1;orthogonalLoop=1;jettySize=auto;html=1;" parent="WIyWlLk6GJQsqaUBKTNV-1" source="_4KjI6gI-X4VP6oNj7C2-13" target="_4KjI6gI-X4VP6oNj7C2-17" edge="1">
          <mxGeometry relative="1" as="geometry" />
        </mxCell>
        <mxCell id="_4KjI6gI-X4VP6oNj7C2-42" value="False" style="edgeLabel;html=1;align=center;verticalAlign=middle;resizable=0;points=[];" parent="_4KjI6gI-X4VP6oNj7C2-18" vertex="1" connectable="0">
          <mxGeometry x="-0.2646" relative="1" as="geometry">
            <mxPoint as="offset" />
          </mxGeometry>
        </mxCell>
        <mxCell id="_4KjI6gI-X4VP6oNj7C2-13" value="if black and white balls != 0 then" style="rhombus;whiteSpace=wrap;html=1;rounded=1;shadow=0;sketch=0;" parent="WIyWlLk6GJQsqaUBKTNV-1" vertex="1">
          <mxGeometry x="415.75" y="617" width="107.5" height="107.5" as="geometry" />
        </mxCell>
        <mxCell id="A3U5nzdIfWvStpn5XmiO-10" style="edgeStyle=orthogonalEdgeStyle;rounded=1;orthogonalLoop=1;jettySize=auto;html=1;exitX=1;exitY=0.75;exitDx=0;exitDy=0;" parent="WIyWlLk6GJQsqaUBKTNV-1" source="_4KjI6gI-X4VP6oNj7C2-15" edge="1">
          <mxGeometry relative="1" as="geometry">
            <mxPoint x="710" y="830" as="targetPoint" />
          </mxGeometry>
        </mxCell>
        <mxCell id="_4KjI6gI-X4VP6oNj7C2-15" value="&lt;div&gt;Take out two black balls.&lt;/div&gt;&lt;div&gt;Add one black.&lt;br&gt;&lt;/div&gt;" style="whiteSpace=wrap;html=1;rounded=0;shadow=0;sketch=0;" parent="WIyWlLk6GJQsqaUBKTNV-1" vertex="1">
          <mxGeometry x="570" y="640.75" width="120" height="60" as="geometry" />
        </mxCell>
        <mxCell id="_4KjI6gI-X4VP6oNj7C2-20" value="" style="edgeStyle=orthogonalEdgeStyle;rounded=1;orthogonalLoop=1;jettySize=auto;html=1;" parent="WIyWlLk6GJQsqaUBKTNV-1" source="_4KjI6gI-X4VP6oNj7C2-17" target="_4KjI6gI-X4VP6oNj7C2-19" edge="1">
          <mxGeometry relative="1" as="geometry" />
        </mxCell>
        <mxCell id="A3U5nzdIfWvStpn5XmiO-11" value="True" style="edgeLabel;html=1;align=center;verticalAlign=middle;resizable=0;points=[];" parent="_4KjI6gI-X4VP6oNj7C2-20" vertex="1" connectable="0">
          <mxGeometry x="-0.1853" relative="1" as="geometry">
            <mxPoint as="offset" />
          </mxGeometry>
        </mxCell>
        <mxCell id="_4KjI6gI-X4VP6oNj7C2-22" value="" style="edgeStyle=orthogonalEdgeStyle;rounded=1;orthogonalLoop=1;jettySize=auto;html=1;" parent="WIyWlLk6GJQsqaUBKTNV-1" source="_4KjI6gI-X4VP6oNj7C2-17" target="_4KjI6gI-X4VP6oNj7C2-21" edge="1">
          <mxGeometry relative="1" as="geometry" />
        </mxCell>
        <mxCell id="_4KjI6gI-X4VP6oNj7C2-43" value="False" style="edgeLabel;html=1;align=center;verticalAlign=middle;resizable=0;points=[];" parent="_4KjI6gI-X4VP6oNj7C2-22" vertex="1" connectable="0">
          <mxGeometry x="-0.2454" relative="1" as="geometry">
            <mxPoint as="offset" />
          </mxGeometry>
        </mxCell>
        <mxCell id="_4KjI6gI-X4VP6oNj7C2-17" value="If both random balls are white" style="rhombus;whiteSpace=wrap;html=1;rounded=1;shadow=0;sketch=0;" parent="WIyWlLk6GJQsqaUBKTNV-1" vertex="1">
          <mxGeometry x="415.25" y="760" width="107.5" height="107.5" as="geometry" />
        </mxCell>
        <mxCell id="_4KjI6gI-X4VP6oNj7C2-26" style="edgeStyle=orthogonalEdgeStyle;rounded=1;orthogonalLoop=1;jettySize=auto;html=1;exitX=1;exitY=0.75;exitDx=0;exitDy=0;" parent="WIyWlLk6GJQsqaUBKTNV-1" source="_4KjI6gI-X4VP6oNj7C2-19" edge="1">
          <mxGeometry relative="1" as="geometry">
            <mxPoint x="710" y="980" as="targetPoint" />
          </mxGeometry>
        </mxCell>
        <mxCell id="_4KjI6gI-X4VP6oNj7C2-19" value="&lt;div&gt;Take out two white balls.&lt;/div&gt;&lt;div&gt;Add one black.&lt;br&gt;&lt;/div&gt;" style="whiteSpace=wrap;html=1;rounded=0;shadow=0;sketch=0;" parent="WIyWlLk6GJQsqaUBKTNV-1" vertex="1">
          <mxGeometry x="570" y="783.75" width="120" height="60" as="geometry" />
        </mxCell>
        <mxCell id="_4KjI6gI-X4VP6oNj7C2-24" value="" style="edgeStyle=orthogonalEdgeStyle;rounded=1;orthogonalLoop=1;jettySize=auto;html=1;" parent="WIyWlLk6GJQsqaUBKTNV-1" source="_4KjI6gI-X4VP6oNj7C2-21" target="_4KjI6gI-X4VP6oNj7C2-23" edge="1">
          <mxGeometry relative="1" as="geometry" />
        </mxCell>
        <mxCell id="A3U5nzdIfWvStpn5XmiO-12" value="True" style="edgeLabel;html=1;align=center;verticalAlign=middle;resizable=0;points=[];" parent="_4KjI6gI-X4VP6oNj7C2-24" vertex="1" connectable="0">
          <mxGeometry x="-0.2558" relative="1" as="geometry">
            <mxPoint as="offset" />
          </mxGeometry>
        </mxCell>
        <mxCell id="_4KjI6gI-X4VP6oNj7C2-31" value="" style="edgeStyle=orthogonalEdgeStyle;rounded=1;orthogonalLoop=1;jettySize=auto;html=1;" parent="WIyWlLk6GJQsqaUBKTNV-1" source="_4KjI6gI-X4VP6oNj7C2-21" target="_4KjI6gI-X4VP6oNj7C2-30" edge="1">
          <mxGeometry relative="1" as="geometry">
            <Array as="points">
              <mxPoint x="410" y="964" />
              <mxPoint x="410" y="964" />
            </Array>
          </mxGeometry>
        </mxCell>
        <mxCell id="_4KjI6gI-X4VP6oNj7C2-44" value="False" style="edgeLabel;html=1;align=center;verticalAlign=middle;resizable=0;points=[];" parent="_4KjI6gI-X4VP6oNj7C2-31" vertex="1" connectable="0">
          <mxGeometry x="-0.1934" relative="1" as="geometry">
            <mxPoint as="offset" />
          </mxGeometry>
        </mxCell>
        <mxCell id="_4KjI6gI-X4VP6oNj7C2-21" value="If one ball is white the othe black" style="rhombus;whiteSpace=wrap;html=1;rounded=1;shadow=0;sketch=0;" parent="WIyWlLk6GJQsqaUBKTNV-1" vertex="1">
          <mxGeometry x="415.25" y="910" width="107.5" height="107.5" as="geometry" />
        </mxCell>
        <mxCell id="_4KjI6gI-X4VP6oNj7C2-27" style="edgeStyle=orthogonalEdgeStyle;rounded=1;orthogonalLoop=1;jettySize=auto;html=1;exitX=1;exitY=0.75;exitDx=0;exitDy=0;" parent="WIyWlLk6GJQsqaUBKTNV-1" source="_4KjI6gI-X4VP6oNj7C2-23" target="_4KjI6gI-X4VP6oNj7C2-29" edge="1">
          <mxGeometry relative="1" as="geometry">
            <mxPoint x="540" y="1060" as="targetPoint" />
            <Array as="points">
              <mxPoint x="710" y="979" />
              <mxPoint x="710" y="1030" />
              <mxPoint x="550" y="1030" />
            </Array>
          </mxGeometry>
        </mxCell>
        <mxCell id="_4KjI6gI-X4VP6oNj7C2-23" value="&lt;div&gt;Take out white and black.&lt;/div&gt;&lt;div&gt;Add one white.&lt;br&gt;&lt;/div&gt;" style="whiteSpace=wrap;html=1;rounded=0;shadow=0;sketch=0;" parent="WIyWlLk6GJQsqaUBKTNV-1" vertex="1">
          <mxGeometry x="570" y="933.75" width="120" height="60" as="geometry" />
        </mxCell>
        <mxCell id="_4KjI6gI-X4VP6oNj7C2-29" value="Break" style="rounded=1;whiteSpace=wrap;html=1;shadow=0;sketch=0;fillColor=#ffffff;" parent="WIyWlLk6GJQsqaUBKTNV-1" vertex="1">
          <mxGeometry x="490" y="1080" width="80" height="40" as="geometry" />
        </mxCell>
        <mxCell id="A3U5nzdIfWvStpn5XmiO-6" style="edgeStyle=orthogonalEdgeStyle;rounded=1;orthogonalLoop=1;jettySize=auto;html=1;exitX=0.75;exitY=1;exitDx=0;exitDy=0;entryX=0.25;entryY=0;entryDx=0;entryDy=0;" parent="WIyWlLk6GJQsqaUBKTNV-1" source="_4KjI6gI-X4VP6oNj7C2-30" target="_4KjI6gI-X4VP6oNj7C2-29" edge="1">
          <mxGeometry relative="1" as="geometry">
            <Array as="points">
              <mxPoint x="330" y="982" />
              <mxPoint x="330" y="1031" />
              <mxPoint x="510" y="1031" />
            </Array>
          </mxGeometry>
        </mxCell>
        <mxCell id="_4KjI6gI-X4VP6oNj7C2-30" value="Else break" style="rounded=0;whiteSpace=wrap;html=1;shadow=0;sketch=0;fillColor=#ffffff;" parent="WIyWlLk6GJQsqaUBKTNV-1" vertex="1">
          <mxGeometry x="260" y="945.63" width="90" height="36.25" as="geometry" />
        </mxCell>
        <mxCell id="_4KjI6gI-X4VP6oNj7C2-49" value="" style="edgeStyle=orthogonalEdgeStyle;rounded=1;orthogonalLoop=1;jettySize=auto;html=1;" parent="WIyWlLk6GJQsqaUBKTNV-1" source="_4KjI6gI-X4VP6oNj7C2-45" target="_4KjI6gI-X4VP6oNj7C2-48" edge="1">
          <mxGeometry relative="1" as="geometry" />
        </mxCell>
        <mxCell id="_4KjI6gI-X4VP6oNj7C2-45" value="Print &quot;We got it&quot;" style="shape=parallelogram;perimeter=parallelogramPerimeter;whiteSpace=wrap;html=1;fixedSize=1;rounded=0;shadow=0;sketch=0;fillColor=#ffffff;" parent="WIyWlLk6GJQsqaUBKTNV-1" vertex="1">
          <mxGeometry x="100" y="285" width="120" height="60" as="geometry" />
        </mxCell>
        <mxCell id="_4KjI6gI-X4VP6oNj7C2-51" value="" style="edgeStyle=orthogonalEdgeStyle;rounded=1;orthogonalLoop=1;jettySize=auto;html=1;" parent="WIyWlLk6GJQsqaUBKTNV-1" source="_4KjI6gI-X4VP6oNj7C2-48" target="_4KjI6gI-X4VP6oNj7C2-50" edge="1">
          <mxGeometry relative="1" as="geometry" />
        </mxCell>
        <mxCell id="_4KjI6gI-X4VP6oNj7C2-48" value="Print left white balls and black balls" style="shape=parallelogram;perimeter=parallelogramPerimeter;whiteSpace=wrap;html=1;fixedSize=1;rounded=0;shadow=0;sketch=0;fillColor=#ffffff;" parent="WIyWlLk6GJQsqaUBKTNV-1" vertex="1">
          <mxGeometry x="100" y="380" width="120" height="60" as="geometry" />
        </mxCell>
        <mxCell id="_4KjI6gI-X4VP6oNj7C2-53" style="edgeStyle=orthogonalEdgeStyle;rounded=1;orthogonalLoop=1;jettySize=auto;html=1;exitX=0.5;exitY=1;exitDx=0;exitDy=0;entryX=0.5;entryY=0;entryDx=0;entryDy=0;" parent="WIyWlLk6GJQsqaUBKTNV-1" source="_4KjI6gI-X4VP6oNj7C2-50" target="_4KjI6gI-X4VP6oNj7C2-52" edge="1">
          <mxGeometry relative="1" as="geometry" />
        </mxCell>
        <mxCell id="_4KjI6gI-X4VP6oNj7C2-50" value="Print counter" style="shape=parallelogram;perimeter=parallelogramPerimeter;whiteSpace=wrap;html=1;fixedSize=1;rounded=0;shadow=0;sketch=0;" parent="WIyWlLk6GJQsqaUBKTNV-1" vertex="1">
          <mxGeometry x="100" y="480" width="120" height="60" as="geometry" />
        </mxCell>
        <mxCell id="_4KjI6gI-X4VP6oNj7C2-52" value="Stop" style="rounded=1;whiteSpace=wrap;html=1;shadow=0;sketch=0;fillColor=#ffffff;" parent="WIyWlLk6GJQsqaUBKTNV-1" vertex="1">
          <mxGeometry x="120" y="581" width="80" height="19.33" as="geometry" />
        </mxCell>
        <mxCell id="A3U5nzdIfWvStpn5XmiO-8" style="edgeStyle=orthogonalEdgeStyle;rounded=1;orthogonalLoop=1;jettySize=auto;html=1;exitX=0;exitY=0.5;exitDx=0;exitDy=0;" parent="WIyWlLk6GJQsqaUBKTNV-1" source="_4KjI6gI-X4VP6oNj7C2-29" edge="1">
          <mxGeometry relative="1" as="geometry">
            <mxPoint x="350" y="390" as="targetPoint" />
            <mxPoint x="490" y="1100" as="sourcePoint" />
            <Array as="points">
              <mxPoint x="240" y="1100" />
              <mxPoint x="240" y="390" />
              <mxPoint x="306" y="390" />
            </Array>
          </mxGeometry>
        </mxCell>
        <mxCell id="A3U5nzdIfWvStpn5XmiO-16" style="edgeStyle=orthogonalEdgeStyle;rounded=1;orthogonalLoop=1;jettySize=auto;html=1;exitX=1;exitY=0.5;exitDx=0;exitDy=0;" parent="WIyWlLk6GJQsqaUBKTNV-1" source="_4KjI6gI-X4VP6oNj7C2-8" edge="1">
          <mxGeometry relative="1" as="geometry">
            <mxPoint x="370" y="240" as="targetPoint" />
            <mxPoint x="415.7499999999999" y="455" as="sourcePoint" />
            <Array as="points">
              <mxPoint x="436" y="455" />
              <mxPoint x="436" y="240" />
            </Array>
          </mxGeometry>
        </mxCell>
        <mxCell id="A3U5nzdIfWvStpn5XmiO-17" value="False" style="edgeLabel;html=1;align=center;verticalAlign=middle;resizable=0;points=[];" parent="A3U5nzdIfWvStpn5XmiO-16" vertex="1" connectable="0">
          <mxGeometry x="-0.3923" relative="1" as="geometry">
            <mxPoint as="offset" />
          </mxGeometry>
        </mxCell>
        <mxCell id="ZGDENyi_qokxfr-2dyXw-2" style="edgeStyle=orthogonalEdgeStyle;rounded=0;orthogonalLoop=1;jettySize=auto;html=1;exitX=0.5;exitY=1;exitDx=0;exitDy=0;" edge="1" parent="WIyWlLk6GJQsqaUBKTNV-1" source="ZGDENyi_qokxfr-2dyXw-1">
          <mxGeometry relative="1" as="geometry">
            <mxPoint x="360.6" y="170" as="targetPoint" />
          </mxGeometry>
        </mxCell>
        <mxCell id="ZGDENyi_qokxfr-2dyXw-1" value="&lt;div style=&quot;font-size: 11px&quot;&gt;&lt;font style=&quot;font-size: 11px&quot;&gt;&lt;br&gt;&lt;/font&gt;&lt;/div&gt;&lt;div style=&quot;font-size: 11px&quot;&gt;&lt;font style=&quot;font-size: 11px&quot;&gt;&lt;br&gt;&lt;/font&gt;&lt;/div&gt;&lt;div style=&quot;font-size: 11px&quot;&gt;&lt;font style=&quot;font-size: 11px&quot;&gt;Initialise Random;&lt;/font&gt;&lt;/div&gt;&lt;div style=&quot;font-size: 11px&quot;&gt;&lt;font style=&quot;font-size: 11px&quot;&gt;Initialise int black balls - 20&lt;/font&gt;&lt;/div&gt;&lt;div style=&quot;font-size: 11px&quot;&gt;&lt;font style=&quot;font-size: 11px&quot;&gt;Initialise int white balls - 16&lt;/font&gt;&lt;/div&gt;&lt;div style=&quot;font-size: 11px&quot;&gt;&lt;font style=&quot;font-size: 11px&quot;&gt;Array int total_balls_left{0,0}&lt;/font&gt;&lt;/div&gt;&lt;div style=&quot;font-size: 11px&quot;&gt;&lt;font style=&quot;font-size: 11px&quot;&gt;&lt;br&gt;&lt;/font&gt;&lt;/div&gt;&lt;div style=&quot;font-size: 11px&quot;&gt;&lt;font style=&quot;font-size: 11px&quot;&gt;&lt;br&gt;&lt;/font&gt;&lt;/div&gt;" style="shape=hexagon;perimeter=hexagonPerimeter2;whiteSpace=wrap;html=1;fixedSize=1;" vertex="1" parent="WIyWlLk6GJQsqaUBKTNV-1">
          <mxGeometry x="291.12" y="10" width="139.25" height="100" as="geometry" />
        </mxCell>
      </root>
    </mxGraphModel>
  </diagram>
</mxfile>
